IKResults
version=1
nRows=10
nColumns=67
inDegrees=yes

Units are S.I. units (second, meters, Newtons, ...)
Angles are in degrees.

endheader
time	pelvis_tilt	pelvis_list	pelvis_rotation	pelvis_tx	pelvis_ty	pelvis_tz	hip_flexion_r	hip_adduction_r	hip_rotation_r	knee_angle_r	knee_rot_r	knee_adduc_r	ankle_angle_r	ankle_rot_r	ankle_add_r	subtalar_angle_r	mtp_angle_r	mtp_rot_r	mtp_add_r	hip_flexion_l	hip_adduction_l	hip_rotation_l	knee_angle_l	knee_rot_l	knee_adduc_l	ankle_angle_l	ankle_rot_l	ankle_add_l	subtalar_angle_l	mtp_angle_l	mtp_rot_l	mtp_add_l	lumbar_extension	lumbar_bending	lumbar_rotation	neck_flexion	neck_lateral_bending	neck_rotation	arm_flex_r	arm_add_r	arm_rot_r	elbow_flex_r	elbow_rot_r	elbow_add_r	pro_sup_r	wrist_flex_r	wrist_adduc_r	wrist_rot_r	wrist_dev_r	hand_finger_flex_r	hand_finger_adduc_r	hand_finger_rot_r	arm_flex_l	arm_add_l	arm_rot_l	elbow_flex_l	elbow_rot_l	elbow_add_l	pro_sup_l	wrist_flex_l	wrist_adduc_l	wrist_rot_l	wrist_dev_l	hand_finger_flex_l	hand_finger_adduc_l	hand_finger_rot_l
      2.10000000	     12.97138904	     10.76734842	     -2.66934854	      0.82142131	      0.73490474	      0.52208730	    -14.53762072	    -15.08759896	      1.55673644	    -53.53236122	     -5.00000000	      4.81995219	     -4.86106724	     -5.00000000	      4.75704618	      0.65272632	     22.53111590	     -2.00000000	      2.00000000	     12.64714622	      9.12289031	     -0.67573154	    -27.29722463	      5.00000000	     -1.29190632	      0.10441810	      4.78465929	     -0.36382420	     -1.45731411	     26.81900063	      2.00000000	      1.82490562	    -28.39249867	    -20.52432523	     -4.38843085	      0.00000000	      0.00000000	      0.00000000	      0.00000000	      0.00000000	      0.00000000	      0.00000000	      0.00000000	      0.00000000	     -0.00042092	      0.00000000	      0.00000000	      0.00000000	      0.00000000	      0.00000000	      0.00000000	      0.00000000	      0.00000000	      0.00000000	      0.00000000	      0.00000000	      0.00000000	      0.00000000	      0.00000000	      0.00000000	      0.00000000	      0.00000000	      0.00000000	      0.00000000	      0.00000000	      0.00000000
      2.10500000	     13.07198481	     10.82478487	     -2.88450764	      0.82728625	      0.73609266	      0.52103006	    -13.32565291	    -15.38973333	      2.20683494	    -54.97574160	     -5.00000000	      5.00000000	     -4.33865453	     -5.00000000	      4.98703405	     -0.77425517	     22.82244313	     -2.00000000	      2.00000000	     11.78557344	      9.41145274	     -0.84392855	    -26.84135389	      5.00000000	     -1.08220045	      0.53094627	      4.57955219	      0.18593611	     -1.37138979	     26.44805677	      2.00000000	      1.97928903	    -28.44922372	    -20.47924606	     -4.30789129	      0.00000000	      0.00000000	      0.00000000	      0.00000000	      0.00000000	      0.00000000	      0.00000000	      0.00000000	      0.00000000	     -0.00042092	      0.00000000	      0.00000000	      0.00000000	      0.00000000	      0.00000000	      0.00000000	      0.00000000	      0.00000000	      0.00000000	      0.00000000	      0.00000000	      0.00000000	      0.00000000	      0.00000000	      0.00000000	      0.00000000	      0.00000000	      0.00000000	      0.00000000	      0.00000000	      0.00000000
      2.11000000	     13.20494685	     10.66515131	     -2.77158251	      0.83303638	      0.73753125	      0.51972595	    -12.32507517	    -15.46319488	      2.12219202	    -56.12818177	     -5.00000000	      4.96702187	     -4.30544492	     -5.00000000	      5.00000000	     -0.90991962	     22.84171971	     -2.00000000	      2.00000000	     10.89743724	      9.44177390	     -0.73910609	    -26.45398639	      5.00000000	     -0.98192952	      0.69775456	      4.49257772	      0.18830861	     -1.32448916	     26.42536792	      2.00000000	      1.98881907	    -28.66043055	    -20.05417350	     -4.44545892	      0.00000000	      0.00000000	      0.00000000	      0.00000000	      0.00000000	      0.00000000	      0.00000000	      0.00000000	      0.00000000	     -0.00042092	      0.00000000	      0.00000000	      0.00000000	      0.00000000	      0.00000000	      0.00000000	      0.00000000	      0.00000000	      0.00000000	      0.00000000	      0.00000000	      0.00000000	      0.00000000	      0.00000000	      0.00000000	      0.00000000	      0.00000000	      0.00000000	      0.00000000	      0.00000000	      0.00000000
      2.11500000	     13.35274334	     10.79590391	     -3.10362607	      0.83882412	      0.73886394	      0.51904471	    -11.09970142	    -15.71408120	      2.88566489	    -57.38944282	     -5.00000000	      5.00000000	     -3.55923635	     -5.00000000	      5.00000000	     -2.60098484	     23.00908004	     -2.00000000	      2.00000000	      9.95173233	      9.69636108	     -1.17214952	    -25.92944410	      5.00000000	     -0.84381159	      1.42024295	      4.20650211	      0.66230354	     -1.22887662	     26.10724230	      2.00000000	      2.00000000	    -28.78894107	    -20.19097545	     -4.40068086	      0.00000000	      0.00000000	      0.00000000	      0.00000000	      0.00000000	      0.00000000	      0.00000000	      0.00000000	      0.00000000	     -0.00042092	      0.00000000	      0.00000000	      0.00000000	      0.00000000	      0.00000000	      0.00000000	      0.00000000	      0.00000000	      0.00000000	      0.00000000	      0.00000000	      0.00000000	      0.00000000	      0.00000000	      0.00000000	      0.00000000	      0.00000000	      0.00000000	      0.00000000	      0.00000000	      0.00000000
      2.12000000	     13.45262483	     10.64984660	     -2.94808148	      0.84446792	      0.74044369	      0.51783541	    -10.08223013	    -15.72022260	      2.86058424	    -58.31351422	     -5.00000000	      4.96945604	     -3.51807488	     -5.00000000	      5.00000000	     -2.71565956	     23.02066282	     -2.00000000	      2.00000000	      9.08448547	      9.69387729	     -1.11171451	    -25.50770966	      5.00000000	     -0.77109245	      1.54501157	      4.10932807	      0.65946839	     -1.16277095	     26.08350193	      2.00000000	      2.00000000	    -29.02212489	    -19.78909854	     -4.57094095	      0.00000000	      0.00000000	      0.00000000	      0.00000000	      0.00000000	      0.00000000	      0.00000000	      0.00000000	      0.00000000	     -0.00042092	      0.00000000	      0.00000000	      0.00000000	      0.00000000	      0.00000000	      0.00000000	      0.00000000	      0.00000000	      0.00000000	      0.00000000	      0.00000000	      0.00000000	      0.00000000	      0.00000000	      0.00000000	      0.00000000	      0.00000000	      0.00000000	      0.00000000	      0.00000000	      0.00000000
      2.12500000	     13.62877308	     10.73470826	     -3.16327430	      0.85008097	      0.74201274	      0.51730100	     -8.95581336	    -15.80899626	      3.57565271	    -59.29943006	     -5.00000000	      5.00000000	     -2.82143135	     -5.00000000	      5.00000000	     -3.97813750	     23.08482170	     -2.00000000	      2.00000000	      8.07653274	      9.82639082	     -1.68495583	    -24.91676579	      5.00000000	     -0.64669284	      2.14240296	      3.75958963	      0.90726797	     -0.92244006	     25.83882906	      2.00000000	      2.00000000	    -29.28075395	    -19.88179504	     -4.73838974	      0.00000000	      0.00000000	      0.00000000	      0.00000000	      0.00000000	      0.00000000	      0.00000000	      0.00000000	      0.00000000	     -0.00042092	      0.00000000	      0.00000000	      0.00000000	      0.00000000	      0.00000000	      0.00000000	      0.00000000	      0.00000000	      0.00000000	      0.00000000	      0.00000000	      0.00000000	      0.00000000	      0.00000000	      0.00000000	      0.00000000	      0.00000000	      0.00000000	      0.00000000	      0.00000000	      0.00000000
      2.13000000	     13.71351249	     10.61135508	     -2.99228215	      0.85565434	      0.74367694	      0.51611789	     -7.95176639	    -15.80946683	      3.56160196	    -59.99186663	     -5.00000000	      4.98935395	     -2.76102001	     -5.00000000	      5.00000000	     -4.07687560	     23.09050984	     -2.00000000	      2.00000000	      7.21710688	      9.83436152	     -1.61433519	    -24.46711513	      5.00000000	     -0.56879591	      2.23721210	      3.62491097	      0.89184199	     -0.81963342	     25.81534702	      1.99979220	      2.00000000	    -29.47413721	    -19.47705500	     -4.85339691	      0.00000000	      0.00000000	      0.00000000	      0.00000000	      0.00000000	      0.00000000	      0.00000000	      0.00000000	      0.00000000	     -0.00042092	      0.00000000	      0.00000000	      0.00000000	      0.00000000	      0.00000000	      0.00000000	      0.00000000	      0.00000000	      0.00000000	      0.00000000	      0.00000000	      0.00000000	      0.00000000	      0.00000000	      0.00000000	      0.00000000	      0.00000000	      0.00000000	      0.00000000	      0.00000000	      0.00000000
      2.13500000	     13.77733084	     10.57373573	     -2.91886921	      0.86121824	      0.74535977	      0.51528822	     -6.89306391	    -15.69119931	      3.82776802	    -60.58738780	     -5.00000000	      4.81061772	     -2.50308576	     -5.00000000	      5.00000000	     -4.32923359	     23.09894922	     -2.00000000	      2.00000000	      6.29831186	      9.87256815	     -1.65363125	    -23.84417852	      5.00000000	     -0.53898685	      2.46944579	      3.41702060	      0.86119456	     -0.65734958	     25.76934446	      1.99972623	      2.00000000	    -29.69102319	    -19.26135809	     -5.17464591	      0.00000000	      0.00000000	      0.00000000	      0.00000000	      0.00000000	      0.00000000	      0.00000000	      0.00000000	      0.00000000	     -0.00042092	      0.00000000	      0.00000000	      0.00000000	      0.00000000	      0.00000000	      0.00000000	      0.00000000	      0.00000000	      0.00000000	      0.00000000	      0.00000000	      0.00000000	      0.00000000	      0.00000000	      0.00000000	      0.00000000	      0.00000000	      0.00000000	      0.00000000	      0.00000000	      0.00000000
      2.14000000	     13.97710957	     10.62780505	     -3.05731323	      0.86700633	      0.74711613	      0.51490168	     -5.93118643	    -15.81108059	      4.32521515	    -61.20055201	     -5.00000000	      5.00000000	     -1.65148727	     -5.00000000	      5.00000000	     -5.14025036	     23.10797773	     -2.00000000	      2.00000000	      5.15243250	      9.87582492	     -2.43871158	    -23.10358524	      5.00000000	     -0.44476476	      2.91866745	      3.02732617	      0.81857069	     -0.24708750	     25.60038733	      1.99845342	      2.00000000	    -29.85757796	    -19.35189372	     -5.40574916	      0.00000000	      0.00000000	      0.00000000	      0.00000000	      0.00000000	      0.00000000	      0.00000000	      0.00000000	      0.00000000	     -0.00042092	      0.00000000	      0.00000000	      0.00000000	      0.00000000	      0.00000000	      0.00000000	      0.00000000	      0.00000000	      0.00000000	      0.00000000	      0.00000000	      0.00000000	      0.00000000	      0.00000000	      0.00000000	      0.00000000	      0.00000000	      0.00000000	      0.00000000	      0.00000000	      0.00000000
      2.14500000	     14.01267454	     10.56595882	     -2.78910804	      0.87239877	      0.74871654	      0.51370699	     -4.95056638	    -15.76165895	      4.36489818	    -61.58552427	     -5.00000000	      5.00000000	     -1.58676237	     -5.00000000	      5.00000000	     -5.19163462	     23.10879163	     -2.00000000	      2.00000000	      4.37845892	      9.93146159	     -2.36532472	    -22.67679013	      5.00000000	     -0.35141978	      2.98456126	      2.87032216	      0.78330403	     -0.11836344	     25.58259866	      1.99499528	      2.00000000	    -30.12329717	    -18.99026462	     -5.41577462	      0.00000000	      0.00000000	      0.00000000	      0.00000000	      0.00000000	      0.00000000	      0.00000000	      0.00000000	      0.00000000	     -0.00042092	      0.00000000	      0.00000000	      0.00000000	      0.00000000	      0.00000000	      0.00000000	      0.00000000	      0.00000000	      0.00000000	      0.00000000	      0.00000000	      0.00000000	      0.00000000	      0.00000000	      0.00000000	      0.00000000	      0.00000000	      0.00000000	      0.00000000	      0.00000000	      0.00000000
